<mxfile host="app.diagrams.net" modified="2024-01-13T18:22:30.951Z" agent="Mozilla/5.0 (Windows NT 10.0; Win64; x64) AppleWebKit/537.36 (KHTML, like Gecko) Chrome/120.0.0.0 Safari/537.36" etag="X__WzsAmO1PLRZgOYuRM" version="21.2.1" type="device">
  <diagram id="C5RBs43oDa-KdzZeNtuy" name="Page-1">
    <mxGraphModel dx="4569" dy="3009" grid="0" gridSize="10" guides="1" tooltips="1" connect="1" arrows="1" fold="1" page="0" pageScale="1" pageWidth="827" pageHeight="1169" math="0" shadow="0">
      <root>
        <mxCell id="WIyWlLk6GJQsqaUBKTNV-0" />
        <mxCell id="WIyWlLk6GJQsqaUBKTNV-1" parent="WIyWlLk6GJQsqaUBKTNV-0" />
        <mxCell id="JTSKyNm3AYxUhAFt5JvO-18" value="&lt;font style=&quot;font-size: 24px;&quot;&gt;&lt;br&gt;FrameProcessing &amp;lt;&amp;lt;Component&amp;gt;&amp;gt;&lt;/font&gt;" style="swimlane;fontStyle=1;align=center;verticalAlign=top;childLayout=stackLayout;horizontal=1;startSize=26;horizontalStack=0;resizeParent=1;resizeParentMax=0;resizeLast=0;collapsible=1;marginBottom=0;whiteSpace=wrap;html=1;rounded=1;" parent="WIyWlLk6GJQsqaUBKTNV-1" vertex="1" collapsed="1">
          <mxGeometry x="1157" y="-751" width="291" height="97" as="geometry">
            <mxRectangle x="1202" y="-674" width="519" height="427" as="alternateBounds" />
          </mxGeometry>
        </mxCell>
        <mxCell id="JTSKyNm3AYxUhAFt5JvO-19" value="&lt;p style=&quot;line-height: 170%;&quot;&gt;&lt;font style=&quot;font-size: 12px;&quot;&gt;&lt;span style=&quot;background-color: initial; color: var(--tw-prose-code);&quot;&gt;+ arCamera:&amp;nbsp;&lt;/span&gt;GameObject&amp;nbsp;&lt;br&gt;&lt;span style=&quot;background-color: initial; color: var(--tw-prose-code);&quot;&gt;+ arCameraManager:&amp;nbsp;&lt;/span&gt;ARCameraManager&amp;nbsp;&lt;br&gt;&lt;span style=&quot;background-color: initial; color: var(--tw-prose-code);&quot;&gt;- m_Texture:&amp;nbsp;&lt;/span&gt;Texture2D&amp;nbsp;&lt;br&gt;&lt;span style=&quot;background-color: initial; color: var(--tw-prose-code);&quot;&gt;- processedImage:&amp;nbsp;&lt;/span&gt;Texture2D&amp;nbsp;&lt;br&gt;&lt;span style=&quot;background-color: initial; color: var(--tw-prose-code);&quot;&gt;- StaticImgSrc:&amp;nbsp;&lt;/span&gt;GameObject&amp;nbsp;&lt;br&gt;&lt;span style=&quot;background-color: initial; color: var(--tw-prose-code);&quot;&gt;- imageChanged: bool&lt;/span&gt;&lt;/font&gt;&lt;/p&gt;&amp;nbsp;" style="text;strokeColor=none;fillColor=none;align=left;verticalAlign=top;spacingLeft=4;spacingRight=4;overflow=hidden;rotatable=0;points=[[0,0.5],[1,0.5]];portConstraint=eastwest;whiteSpace=wrap;html=1;rounded=1;" parent="JTSKyNm3AYxUhAFt5JvO-18" vertex="1">
          <mxGeometry y="26" width="519" height="146" as="geometry" />
        </mxCell>
        <mxCell id="JTSKyNm3AYxUhAFt5JvO-20" value="" style="line;strokeWidth=1;fillColor=none;align=left;verticalAlign=middle;spacingTop=-1;spacingLeft=3;spacingRight=3;rotatable=0;labelPosition=right;points=[];portConstraint=eastwest;strokeColor=inherit;rounded=1;" parent="JTSKyNm3AYxUhAFt5JvO-18" vertex="1">
          <mxGeometry y="172" width="519" height="11" as="geometry" />
        </mxCell>
        <mxCell id="JTSKyNm3AYxUhAFt5JvO-21" value="&lt;p style=&quot;line-height: 180%;&quot;&gt;&lt;font style=&quot;font-size: 12px;&quot;&gt;&lt;span style=&quot;background-color: initial; color: rgb(51, 0, 0);&quot;&gt;+ Start(): void&lt;/span&gt;&lt;br&gt;&lt;span style=&quot;background-color: initial; color: rgb(51, 0, 0);&quot;&gt;+ Update(): void&lt;span style=&quot;&quot;&gt; &lt;/span&gt;&lt;/span&gt;&lt;br&gt;&lt;span style=&quot;background-color: initial; color: rgb(51, 0, 0);&quot;&gt;+ OnEnable(): void&lt;/span&gt;&lt;br&gt;&lt;span style=&quot;background-color: initial; color: rgb(51, 0, 0);&quot;&gt;+ OnDisable(): void&lt;/span&gt;&lt;br&gt;&lt;span style=&quot;background-color: initial; color: rgb(51, 0, 0);&quot;&gt;+ OnCameraFrameReceived(eventArgs: ARCameraFrameEventArgs): void&lt;/span&gt;&lt;br&gt;&lt;span style=&quot;background-color: initial; color: rgb(51, 0, 0);&quot;&gt;- ProcessFrame(image: XRCpuImage): void&lt;/span&gt;&lt;br&gt;&lt;span style=&quot;background-color: initial; color: rgb(51, 0, 0);&quot;&gt;- rotateTexture(originalTexture: Texture2D, clockwise: bool): Texture2D&lt;/span&gt;&lt;br&gt;&lt;span style=&quot;background-color: initial; color: rgb(51, 0, 0);&quot;&gt;+ SetImageChanged(status: bool): void&lt;/span&gt;&lt;br&gt;&lt;span style=&quot;background-color: initial; color: rgb(51, 0, 0);&quot;&gt;+ GetImageChanged(): bool&lt;/span&gt;&lt;/font&gt;&lt;/p&gt;" style="text;strokeColor=none;fillColor=none;align=left;verticalAlign=top;spacingLeft=4;spacingRight=4;overflow=hidden;rotatable=0;points=[[0,0.5],[1,0.5]];portConstraint=eastwest;whiteSpace=wrap;html=1;rounded=1;" parent="JTSKyNm3AYxUhAFt5JvO-18" vertex="1">
          <mxGeometry y="183" width="519" height="244" as="geometry" />
        </mxCell>
        <mxCell id="JTSKyNm3AYxUhAFt5JvO-22" value="&lt;font style=&quot;font-size: 24px;&quot;&gt;&lt;br&gt;GetDepth &amp;lt;&amp;lt;Component&amp;gt;&amp;gt;&lt;/font&gt;" style="swimlane;fontStyle=1;align=center;verticalAlign=top;childLayout=stackLayout;horizontal=1;startSize=26;horizontalStack=0;resizeParent=1;resizeParentMax=0;resizeLast=0;collapsible=1;marginBottom=0;whiteSpace=wrap;html=1;rounded=1;" parent="WIyWlLk6GJQsqaUBKTNV-1" vertex="1" collapsed="1">
          <mxGeometry x="1754" y="-830" width="272" height="123" as="geometry">
            <mxRectangle x="1928" y="-744" width="518" height="448" as="alternateBounds" />
          </mxGeometry>
        </mxCell>
        <mxCell id="JTSKyNm3AYxUhAFt5JvO-23" value="&lt;p style=&quot;line-height: 170%;&quot;&gt;&lt;font style=&quot;font-size: 12px;&quot;&gt;&lt;span style=&quot;background-color: initial;&quot;&gt;&lt;font style=&quot;font-size: 12px;&quot; color=&quot;#330000&quot;&gt;+ arCamera:&amp;nbsp;&lt;/font&gt;&lt;/span&gt;GameObject&lt;br&gt;&lt;span style=&quot;background-color: initial;&quot;&gt;&lt;font style=&quot;font-size: 12px;&quot; color=&quot;#330000&quot;&gt;+ arCameraManager:&amp;nbsp;&lt;/font&gt;&lt;/span&gt;ARCameraManager&amp;nbsp;&lt;br&gt;&lt;span style=&quot;background-color: initial;&quot;&gt;&lt;font style=&quot;font-size: 12px;&quot; color=&quot;#330000&quot;&gt;+ manager:&amp;nbsp;&lt;/font&gt;&lt;/span&gt;AROcclusionManager&amp;nbsp;&lt;br&gt;&lt;span style=&quot;background-color: initial;&quot;&gt;&lt;font style=&quot;font-size: 12px;&quot; color=&quot;#330000&quot;&gt;- formattedDepth:&amp;nbsp;&lt;/font&gt;&lt;/span&gt;float&amp;nbsp;&lt;br&gt;&lt;span style=&quot;background-color: initial;&quot;&gt;&lt;font style=&quot;font-size: 12px;&quot; color=&quot;#330000&quot;&gt;- poseTrackingSolution:&amp;nbsp;&lt;/font&gt;&lt;/span&gt;PoseTrackingSolution&lt;br&gt;&lt;span style=&quot;background-color: initial;&quot;&gt;&lt;font style=&quot;font-size: 12px;&quot; color=&quot;#330000&quot;&gt;- texture2:&amp;nbsp;&lt;/font&gt;&lt;/span&gt;Texture2D&amp;nbsp;&lt;br&gt;&lt;span style=&quot;background-color: initial;&quot;&gt;&lt;font style=&quot;font-size: 12px;&quot; color=&quot;#330000&quot;&gt;- resizedTex:&amp;nbsp;&lt;/font&gt;&lt;/span&gt;Texture2D&amp;nbsp;&lt;br&gt;&lt;span style=&quot;background-color: initial;&quot;&gt;&lt;font style=&quot;font-size: 12px;&quot; color=&quot;#330000&quot;&gt;- Rimage2:&amp;nbsp;&lt;/font&gt;&lt;/span&gt;RawImage&amp;nbsp;&lt;br&gt;&lt;span style=&quot;background-color: initial;&quot;&gt;&lt;font style=&quot;font-size: 12px;&quot; color=&quot;#330000&quot;&gt;- colors:&amp;nbsp;&lt;/font&gt;&lt;/span&gt;Color32[]&lt;br&gt;&lt;span style=&quot;background-color: initial;&quot;&gt;&lt;font style=&quot;font-size: 12px;&quot; color=&quot;#330000&quot;&gt;- avgDepth:&amp;nbsp;&lt;/font&gt;&lt;/span&gt;float&lt;br&gt;&lt;span style=&quot;background-color: initial;&quot;&gt;&lt;font style=&quot;font-size: 12px;&quot; color=&quot;#330000&quot;&gt;- m_Texture: Texture2D&lt;/font&gt;&lt;/span&gt;&lt;/font&gt;&lt;/p&gt;" style="text;strokeColor=none;fillColor=none;align=left;verticalAlign=top;spacingLeft=4;spacingRight=4;overflow=hidden;rotatable=0;points=[[0,0.5],[1,0.5]];portConstraint=eastwest;whiteSpace=wrap;html=1;rounded=1;" parent="JTSKyNm3AYxUhAFt5JvO-22" vertex="1">
          <mxGeometry y="26" width="518" height="250" as="geometry" />
        </mxCell>
        <mxCell id="JTSKyNm3AYxUhAFt5JvO-75" value="Use" style="endArrow=open;endSize=12;dashed=1;html=1;rounded=0;" parent="JTSKyNm3AYxUhAFt5JvO-22" edge="1">
          <mxGeometry width="160" relative="1" as="geometry">
            <mxPoint x="8" y="264" as="sourcePoint" />
            <mxPoint x="168" y="264" as="targetPoint" />
          </mxGeometry>
        </mxCell>
        <mxCell id="JTSKyNm3AYxUhAFt5JvO-24" value="" style="line;strokeWidth=1;fillColor=none;align=left;verticalAlign=middle;spacingTop=-1;spacingLeft=3;spacingRight=3;rotatable=0;labelPosition=right;points=[];portConstraint=eastwest;strokeColor=inherit;rounded=1;" parent="JTSKyNm3AYxUhAFt5JvO-22" vertex="1">
          <mxGeometry y="276" width="518" height="22" as="geometry" />
        </mxCell>
        <mxCell id="JTSKyNm3AYxUhAFt5JvO-25" value="&lt;p style=&quot;line-height: 170%;&quot;&gt;&lt;font style=&quot;font-size: 12px;&quot;&gt;&lt;span style=&quot;background-color: initial; color: rgb(51, 0, 0);&quot;&gt;+ Start(): void&lt;/span&gt;&lt;br&gt;&lt;span style=&quot;background-color: initial; color: rgb(51, 0, 0);&quot;&gt;+ Update(): void&lt;/span&gt;&lt;br&gt;&lt;span style=&quot;background-color: initial; color: rgb(51, 0, 0);&quot;&gt;+ GetDistance(): float&lt;/span&gt;&lt;br&gt;&lt;span style=&quot;background-color: initial; color: rgb(51, 0, 0);&quot;&gt;- convertPixelDataToDistanceInMeters(data: byte[], format: XRCpuImage.Format): float&lt;/span&gt;&lt;br&gt;&lt;span style=&quot;background-color: initial; color: rgb(51, 0, 0);&quot;&gt;+ OnDisable(): void&lt;/span&gt;&lt;/font&gt;&lt;/p&gt;" style="text;strokeColor=none;fillColor=none;align=left;verticalAlign=top;spacingLeft=4;spacingRight=4;overflow=hidden;rotatable=0;points=[[0,0.5],[1,0.5]];portConstraint=eastwest;whiteSpace=wrap;html=1;rounded=1;" parent="JTSKyNm3AYxUhAFt5JvO-22" vertex="1">
          <mxGeometry y="298" width="518" height="150" as="geometry" />
        </mxCell>
        <mxCell id="JTSKyNm3AYxUhAFt5JvO-29" value="&lt;font style=&quot;font-size: 24px;&quot;&gt;&lt;br&gt;GetLandMarks &amp;lt;&amp;lt;Component&amp;gt;&amp;gt;&lt;/font&gt;" style="swimlane;fontStyle=1;align=center;verticalAlign=top;childLayout=stackLayout;horizontal=1;startSize=26;horizontalStack=0;resizeParent=1;resizeParentMax=0;resizeLast=0;collapsible=1;marginBottom=0;whiteSpace=wrap;html=1;rounded=1;" parent="WIyWlLk6GJQsqaUBKTNV-1" vertex="1" collapsed="1">
          <mxGeometry x="453" y="-759" width="331" height="134" as="geometry">
            <mxRectangle x="530" y="-718" width="522" height="633" as="alternateBounds" />
          </mxGeometry>
        </mxCell>
        <mxCell id="JTSKyNm3AYxUhAFt5JvO-30" value="&lt;p style=&quot;line-height: 170%;&quot;&gt;&lt;span style=&quot;background-color: initial; color: rgb(51, 0, 0);&quot;&gt;+ arCamera:&amp;nbsp;&lt;/span&gt;GameObject&lt;span style=&quot;color: rgb(51, 0, 0);&quot;&gt;&lt;/span&gt;&lt;br&gt;&lt;span style=&quot;background-color: initial; color: rgb(51, 0, 0);&quot;&gt;+ arCameraManager:&amp;nbsp;&lt;/span&gt;ARCameraManager&amp;nbsp;&lt;br&gt;&lt;span style=&quot;background-color: initial; color: rgb(51, 0, 0);&quot;&gt;+ poseTrackingSolution:&amp;nbsp;&lt;/span&gt;PoseTrackingSolution&amp;nbsp;&lt;br&gt;&lt;span style=&quot;background-color: initial; color: rgb(51, 0, 0);&quot;&gt;+ occlusionManager:&amp;nbsp;&lt;/span&gt;AROcclusionManager&lt;br&gt;&lt;span style=&quot;background-color: initial; color: rgb(51, 0, 0);&quot;&gt;+ activeModel:&amp;nbsp;&lt;/span&gt;GameObject&amp;nbsp;&lt;br&gt;&lt;span style=&quot;background-color: initial; color: rgb(51, 0, 0);&quot;&gt;+ frameProcessing:&amp;nbsp;&lt;/span&gt;FrameProcessing&amp;nbsp;&lt;br&gt;&lt;span style=&quot;background-color: initial; color: rgb(51, 0, 0);&quot;&gt;+ Depth:&amp;nbsp;&lt;/span&gt;GetDepth&amp;nbsp;&lt;br&gt;&lt;span style=&quot;background-color: initial; color: rgb(51, 0, 0);&quot;&gt;+ modelController:&amp;nbsp;&lt;/span&gt;ModelController&amp;nbsp;&lt;br&gt;&lt;span style=&quot;background-color: initial; color: rgb(51, 0, 0);&quot;&gt;- HumanDepthInMeters: float&lt;/span&gt;&lt;br&gt;&lt;span style=&quot;background-color: initial; color: rgb(51, 0, 0);&quot;&gt;- vector3Filter:&amp;nbsp;&lt;/span&gt;OneEuroFilter&amp;lt;Vector3&amp;gt;[]&lt;br&gt;&lt;span style=&quot;background-color: initial; color: rgb(51, 0, 0);&quot;&gt;- filterFrequency:&amp;nbsp;&lt;/span&gt;float&amp;nbsp;&lt;br&gt;&lt;span style=&quot;background-color: initial; color: rgb(51, 0, 0);&quot;&gt;- mincutoff:&amp;nbsp;&lt;/span&gt;float&amp;nbsp;&lt;br&gt;&lt;span style=&quot;background-color: initial; color: rgb(51, 0, 0);&quot;&gt;- beta:&amp;nbsp;&lt;/span&gt;float&amp;nbsp;&lt;br&gt;&lt;span style=&quot;background-color: initial; color: rgb(51, 0, 0);&quot;&gt;- NoisyModelPosition:&amp;nbsp;&lt;/span&gt;Vector3&amp;nbsp;&lt;br&gt;&lt;span style=&quot;background-color: initial; color: rgb(51, 0, 0);&quot;&gt;- Vector3 filteredModelPosition:&amp;nbsp;&lt;/span&gt;Vector3&amp;nbsp;&lt;br&gt;&lt;span style=&quot;background-color: initial; color: rgb(51, 0, 0);&quot;&gt;- noisyLandmarks:&amp;nbsp;&lt;/span&gt;Vector3[]&lt;br&gt;&lt;span style=&quot;background-color: initial; color: rgb(51, 0, 0);&quot;&gt;- filteredLandmarks: Vector3[]&lt;/span&gt;&lt;/p&gt;" style="text;strokeColor=none;fillColor=none;align=left;verticalAlign=top;spacingLeft=4;spacingRight=4;overflow=hidden;rotatable=0;points=[[0,0.5],[1,0.5]];portConstraint=eastwest;whiteSpace=wrap;html=1;rounded=1;" parent="JTSKyNm3AYxUhAFt5JvO-29" vertex="1">
          <mxGeometry y="26" width="522" height="371" as="geometry" />
        </mxCell>
        <mxCell id="JTSKyNm3AYxUhAFt5JvO-31" value="" style="line;strokeWidth=1;fillColor=none;align=left;verticalAlign=middle;spacingTop=-1;spacingLeft=3;spacingRight=3;rotatable=0;labelPosition=right;points=[];portConstraint=eastwest;strokeColor=inherit;rounded=1;" parent="JTSKyNm3AYxUhAFt5JvO-29" vertex="1">
          <mxGeometry y="397" width="522" height="28" as="geometry" />
        </mxCell>
        <mxCell id="JTSKyNm3AYxUhAFt5JvO-32" value="&lt;p style=&quot;line-height: 170%;&quot;&gt;&lt;font color=&quot;#330000&quot;&gt;&lt;span style=&quot;background-color: initial;&quot;&gt;+ Start(): void&lt;/span&gt;&lt;br&gt;&lt;span style=&quot;background-color: initial;&quot;&gt;+ OnPoseLandmarksReceived(poseLandmarks: NormalizedLandmarkList): void&lt;/span&gt;&lt;br&gt;&lt;span style=&quot;background-color: initial;&quot;&gt;+ Update(): void&lt;/span&gt;&lt;br&gt;&lt;span style=&quot;background-color: initial;&quot;&gt;+ OnDisable(): void&lt;/span&gt;&lt;br&gt;&lt;span style=&quot;background-color: initial;&quot;&gt;+ GetOneEuroFilterInstance(index: int): OneEuroFilter&amp;lt;Vector3&amp;gt;&lt;/span&gt;&lt;br&gt;&lt;span style=&quot;background-color: initial;&quot;&gt;+ GetFilteredModelPosition(): Vector3&lt;/span&gt;&lt;br&gt;&lt;span style=&quot;background-color: initial;&quot;&gt;+ GetFilteredLandMarkPosition(index: int): Vector3&lt;/span&gt;&lt;br&gt;&lt;span style=&quot;background-color: initial;&quot;&gt;+ GetNoisyLandMarkPosition(index: int): Vector3&lt;/span&gt;&lt;/font&gt;&lt;br&gt;&lt;/p&gt;" style="text;strokeColor=none;fillColor=none;align=left;verticalAlign=top;spacingLeft=4;spacingRight=4;overflow=hidden;rotatable=0;points=[[0,0.5],[1,0.5]];portConstraint=eastwest;whiteSpace=wrap;html=1;rounded=1;" parent="JTSKyNm3AYxUhAFt5JvO-29" vertex="1">
          <mxGeometry y="425" width="522" height="208" as="geometry" />
        </mxCell>
        <mxCell id="JTSKyNm3AYxUhAFt5JvO-33" value="&lt;font style=&quot;font-size: 24px;&quot;&gt;&lt;br&gt;ModelController &amp;lt;&amp;lt;Component&amp;gt;&amp;gt;&lt;/font&gt;" style="swimlane;fontStyle=1;align=center;verticalAlign=top;childLayout=stackLayout;horizontal=1;startSize=18;horizontalStack=0;resizeParent=1;resizeParentMax=0;resizeLast=0;collapsible=1;marginBottom=0;whiteSpace=wrap;html=1;rounded=1;" parent="WIyWlLk6GJQsqaUBKTNV-1" vertex="1" collapsed="1">
          <mxGeometry x="-948" y="-595" width="228" height="113" as="geometry">
            <mxRectangle x="-1357" y="-534" width="522" height="413" as="alternateBounds" />
          </mxGeometry>
        </mxCell>
        <mxCell id="JTSKyNm3AYxUhAFt5JvO-34" value="&lt;p style=&quot;line-height: 170%;&quot;&gt;&lt;font color=&quot;#330000&quot; style=&quot;font-size: 12px;&quot;&gt;&lt;span style=&quot;background-color: initial;&quot;&gt;+ arCamera:&amp;nbsp;&lt;/span&gt;&lt;/font&gt;GameObject&amp;nbsp;&lt;font color=&quot;#330000&quot; style=&quot;font-size: 12px;&quot;&gt;&lt;br&gt;&lt;span style=&quot;background-color: initial;&quot;&gt;+ arCameraManager:&amp;nbsp;&lt;/span&gt;&lt;/font&gt;ARCameraManager&amp;nbsp;&lt;font color=&quot;#330000&quot; style=&quot;font-size: 12px;&quot;&gt;&lt;br&gt;&lt;/font&gt;&lt;font color=&quot;#330000&quot; style=&quot;font-size: 12px;&quot;&gt;&lt;span style=&quot;background-color: initial;&quot;&gt;+ occlusionManager:&amp;nbsp;&lt;/span&gt;&lt;/font&gt;AROcclusionManager&amp;nbsp;&lt;font color=&quot;#330000&quot; style=&quot;font-size: 12px;&quot;&gt;&lt;br&gt;&lt;span style=&quot;background-color: initial;&quot;&gt;+ activeModel:&amp;nbsp;&lt;/span&gt;&lt;/font&gt;GameObject&amp;nbsp;&lt;font color=&quot;#330000&quot; style=&quot;font-size: 12px;&quot;&gt;&lt;br&gt;&lt;span style=&quot;background-color: initial;&quot;&gt;+ Models:&amp;nbsp;&lt;/span&gt;&lt;/font&gt;GameObject[]&amp;nbsp;&lt;font color=&quot;#330000&quot; style=&quot;font-size: 12px;&quot;&gt;&lt;br&gt;&lt;span style=&quot;background-color: initial;&quot;&gt;+ _getLandMarks:&amp;nbsp;&lt;/span&gt;&lt;/font&gt;getLandMarks&amp;nbsp;&lt;font color=&quot;#330000&quot; style=&quot;font-size: 12px;&quot;&gt;&lt;br&gt;&lt;span style=&quot;background-color: initial;&quot;&gt;- FilteredPositions:&amp;nbsp;&lt;/span&gt;&lt;/font&gt;Vector3[]&amp;nbsp;&lt;font color=&quot;#330000&quot; style=&quot;font-size: 12px;&quot;&gt;&lt;br&gt;&lt;span style=&quot;background-color: initial;&quot;&gt;- centerPos:&amp;nbsp;&lt;/span&gt;&lt;/font&gt;Vector3&amp;nbsp;&lt;font color=&quot;#330000&quot; style=&quot;font-size: 12px;&quot;&gt;&lt;br&gt;&lt;span style=&quot;background-color: initial;&quot;&gt;+ BodyPartTargets: GameObject[]&lt;/span&gt;&lt;/font&gt;&lt;br&gt;&lt;/p&gt;" style="text;strokeColor=none;fillColor=none;align=left;verticalAlign=top;spacingLeft=4;spacingRight=4;overflow=hidden;rotatable=0;points=[[0,0.5],[1,0.5]];portConstraint=eastwest;whiteSpace=wrap;html=1;rounded=1;" parent="JTSKyNm3AYxUhAFt5JvO-33" vertex="1">
          <mxGeometry y="18" width="522" height="230" as="geometry" />
        </mxCell>
        <mxCell id="JTSKyNm3AYxUhAFt5JvO-35" value="" style="line;strokeWidth=1;fillColor=none;align=left;verticalAlign=middle;spacingTop=-1;spacingLeft=3;spacingRight=3;rotatable=0;labelPosition=right;points=[];portConstraint=eastwest;strokeColor=inherit;rounded=1;" parent="JTSKyNm3AYxUhAFt5JvO-33" vertex="1">
          <mxGeometry y="248" width="522" height="22" as="geometry" />
        </mxCell>
        <mxCell id="JTSKyNm3AYxUhAFt5JvO-36" value="&lt;p style=&quot;line-height: 170%;&quot;&gt;&lt;font color=&quot;#330000&quot;&gt;&lt;span style=&quot;background-color: initial;&quot;&gt;+ Start(): void&lt;/span&gt;&lt;br&gt;&lt;span style=&quot;background-color: initial;&quot;&gt;+ UpdatePosition(): void&lt;/span&gt;&lt;br&gt;&lt;span style=&quot;background-color: initial;&quot;&gt;+ Update(): void&lt;/span&gt;&lt;br&gt;&lt;span style=&quot;background-color: initial;&quot;&gt;+ getActiveModel(): GameObject&lt;/span&gt;&lt;br&gt;&lt;span style=&quot;background-color: initial;&quot;&gt;+ setActiveModel(GameObject model)&lt;/span&gt;&lt;/font&gt;&lt;br&gt;&lt;/p&gt;" style="text;strokeColor=none;fillColor=none;align=left;verticalAlign=top;spacingLeft=4;spacingRight=4;overflow=hidden;rotatable=0;points=[[0,0.5],[1,0.5]];portConstraint=eastwest;whiteSpace=wrap;html=1;rounded=1;" parent="JTSKyNm3AYxUhAFt5JvO-33" vertex="1">
          <mxGeometry y="270" width="522" height="143" as="geometry" />
        </mxCell>
        <mxCell id="JTSKyNm3AYxUhAFt5JvO-37" value="&lt;font style=&quot;font-size: 24px;&quot;&gt;&lt;br&gt;OneEuroFilter &amp;lt;&amp;lt;Component&amp;gt;&amp;gt;&lt;/font&gt;" style="swimlane;fontStyle=1;align=center;verticalAlign=top;childLayout=stackLayout;horizontal=1;startSize=26;horizontalStack=0;resizeParent=1;resizeParentMax=0;resizeLast=0;collapsible=1;marginBottom=0;whiteSpace=wrap;html=1;rounded=1;" parent="WIyWlLk6GJQsqaUBKTNV-1" vertex="1" collapsed="1">
          <mxGeometry x="-233" y="-898" width="400" height="91" as="geometry">
            <mxRectangle x="-157" y="-941" width="522" height="464" as="alternateBounds" />
          </mxGeometry>
        </mxCell>
        <mxCell id="JTSKyNm3AYxUhAFt5JvO-38" value="&lt;p style=&quot;line-height: 170%;&quot;&gt;&lt;font style=&quot;font-size: 12px;&quot; color=&quot;#330000&quot;&gt;&lt;span style=&quot;background-color: initial; font-family: Verdana;&quot;&gt;- freq: float&lt;/span&gt;&lt;br&gt;&lt;span style=&quot;background-color: initial; font-family: Verdana;&quot;&gt;- mincutoff: float&lt;/span&gt;&lt;br&gt;&lt;span style=&quot;background-color: initial; font-family: Verdana;&quot;&gt;- beta: float&lt;/span&gt;&lt;br&gt;&lt;span style=&quot;background-color: initial; font-family: Verdana;&quot;&gt;- dcutoff: float&lt;/span&gt;&lt;br&gt;&lt;span style=&quot;background-color: initial; font-family: Verdana;&quot;&gt;- x: LowPassFilter&lt;/span&gt;&lt;br&gt;&lt;span style=&quot;background-color: initial; font-family: Verdana;&quot;&gt;- dx: LowPassFilter&lt;/span&gt;&lt;br&gt;&lt;span style=&quot;background-color: initial; font-family: Verdana;&quot;&gt;- lasttime: float&lt;/span&gt;&lt;br&gt;&lt;span style=&quot;background-color: initial; font-family: Verdana;&quot;&gt;+currValue: float&lt;/span&gt;&lt;br&gt;&lt;span style=&quot;background-color: initial; font-family: Verdana;&quot;&gt;+prevValue: float&lt;/span&gt;&lt;/font&gt;&lt;br&gt;&lt;/p&gt;" style="text;strokeColor=none;fillColor=none;align=left;verticalAlign=top;spacingLeft=4;spacingRight=4;overflow=hidden;rotatable=0;points=[[0,0.5],[1,0.5]];portConstraint=eastwest;whiteSpace=wrap;html=1;rounded=1;" parent="JTSKyNm3AYxUhAFt5JvO-37" vertex="1">
          <mxGeometry y="26" width="522" height="222" as="geometry" />
        </mxCell>
        <mxCell id="JTSKyNm3AYxUhAFt5JvO-39" value="" style="line;strokeWidth=1;fillColor=none;align=left;verticalAlign=middle;spacingTop=-1;spacingLeft=3;spacingRight=3;rotatable=0;labelPosition=right;points=[];portConstraint=eastwest;strokeColor=inherit;rounded=1;" parent="JTSKyNm3AYxUhAFt5JvO-37" vertex="1">
          <mxGeometry y="248" width="522" height="22" as="geometry" />
        </mxCell>
        <mxCell id="JTSKyNm3AYxUhAFt5JvO-40" value="&lt;p style=&quot;line-height: 170%;&quot;&gt;&lt;font style=&quot;font-size: 12px;&quot; color=&quot;#330000&quot;&gt;&lt;span style=&quot;background-color: initial;&quot;&gt;- alpha(float _cutoff): float&lt;/span&gt;&lt;br&gt;&lt;span style=&quot;background-color: initial;&quot;&gt;+ setFrequency(float _f): void&lt;/span&gt;&lt;br&gt;&lt;span style=&quot;background-color: initial;&quot;&gt;+ setMinCutoff(float _mc): void&lt;/span&gt;&lt;br&gt;&lt;span style=&quot;background-color: initial;&quot;&gt;+ setBeta(float _b): void&lt;/span&gt;&lt;br&gt;&lt;span style=&quot;background-color: initial;&quot;&gt;+ setDerivateCutoff(float _dc): void&lt;/span&gt;&lt;br&gt;&lt;span style=&quot;background-color: initial;&quot;&gt;+ OneEuroFilter(float _freq, float _mincutoff = 1.0f, float _beta = 0.0f, float _dcutoff = 1.0f)&lt;/span&gt;&lt;br&gt;&lt;span style=&quot;background-color: initial;&quot;&gt;+ UpdateParams(float _freq, float _mincutoff = 1.0f, float _beta = 0.0f, float _dcutoff = 1.0f): void&lt;/span&gt;&lt;br&gt;&lt;span style=&quot;background-color: initial;&quot;&gt;+ Filter(float value, float timestamp = -1.0f): void&lt;/span&gt;&lt;/font&gt;&lt;br&gt;&lt;/p&gt;" style="text;strokeColor=none;fillColor=none;align=left;verticalAlign=top;spacingLeft=4;spacingRight=4;overflow=hidden;rotatable=0;points=[[0,0.5],[1,0.5]];portConstraint=eastwest;whiteSpace=wrap;html=1;rounded=1;" parent="JTSKyNm3AYxUhAFt5JvO-37" vertex="1">
          <mxGeometry y="270" width="522" height="194" as="geometry" />
        </mxCell>
        <mxCell id="JTSKyNm3AYxUhAFt5JvO-41" value="&lt;font style=&quot;font-size: 24px;&quot;&gt;&lt;br&gt;PoseTrackingSolution &amp;lt;&amp;lt;Component&amp;gt;&amp;gt;&lt;/font&gt;" style="swimlane;fontStyle=1;align=center;verticalAlign=top;childLayout=stackLayout;horizontal=1;startSize=26;horizontalStack=0;resizeParent=1;resizeParentMax=0;resizeLast=0;collapsible=1;marginBottom=0;whiteSpace=wrap;html=1;rounded=1;" parent="WIyWlLk6GJQsqaUBKTNV-1" vertex="1" collapsed="1">
          <mxGeometry x="-629" y="-828" width="263" height="169" as="geometry">
            <mxRectangle x="-879" y="-831" width="609" height="388" as="alternateBounds" />
          </mxGeometry>
        </mxCell>
        <mxCell id="JTSKyNm3AYxUhAFt5JvO-42" value="&lt;p style=&quot;line-height: 170%;&quot;&gt;&lt;font style=&quot;font-size: 12px;&quot; color=&quot;#330000&quot;&gt;&lt;span style=&quot;background-color: initial;&quot;&gt;+ modelComplexity:&amp;nbsp;&lt;/span&gt;&lt;/font&gt;PoseTrackingGraph.ModelComplexity&amp;nbsp;&lt;font style=&quot;font-size: 12px;&quot; color=&quot;#330000&quot;&gt;&lt;br&gt;&lt;span style=&quot;background-color: initial;&quot;&gt;+ smoothLandmarks: bool&lt;/span&gt;&lt;br&gt;&lt;span style=&quot;background-color: initial;&quot;&gt;+ enableSegmentation: bool&lt;/span&gt;&lt;br&gt;&lt;span style=&quot;background-color: initial;&quot;&gt;+ smoothSegmentation: bool&lt;/span&gt;&lt;br&gt;&lt;span style=&quot;background-color: initial;&quot;&gt;+ minDetectionConfidence: float&lt;/span&gt;&lt;br&gt;&lt;span style=&quot;background-color: initial;&quot;&gt;+ minTrackingConfidence: float&lt;/span&gt;&lt;br&gt;&lt;span style=&quot;background-color: initial;&quot;&gt;+ _segmentationMaskAnnotationController: MaskAnnotationController&lt;/span&gt;&lt;/font&gt;&lt;br&gt;&lt;/p&gt;" style="text;strokeColor=none;fillColor=none;align=left;verticalAlign=top;spacingLeft=4;spacingRight=4;overflow=hidden;rotatable=0;points=[[0,0.5],[1,0.5]];portConstraint=eastwest;whiteSpace=wrap;html=1;rounded=1;" parent="JTSKyNm3AYxUhAFt5JvO-41" vertex="1">
          <mxGeometry y="26" width="609" height="173" as="geometry" />
        </mxCell>
        <mxCell id="JTSKyNm3AYxUhAFt5JvO-43" value="" style="line;strokeWidth=1;fillColor=none;align=left;verticalAlign=middle;spacingTop=-1;spacingLeft=3;spacingRight=3;rotatable=0;labelPosition=right;points=[];portConstraint=eastwest;strokeColor=inherit;rounded=1;" parent="JTSKyNm3AYxUhAFt5JvO-41" vertex="1">
          <mxGeometry y="199" width="609" height="22" as="geometry" />
        </mxCell>
        <mxCell id="JTSKyNm3AYxUhAFt5JvO-44" value="&lt;p style=&quot;line-height: 170%;&quot;&gt;&lt;font style=&quot;font-size: 12px;&quot; color=&quot;#330000&quot;&gt;&lt;span style=&quot;background-color: initial;&quot;&gt;+ OnStartRun(): void&lt;/span&gt;&lt;br&gt;&lt;span style=&quot;background-color: initial;&quot;&gt;+ AddTextureFrameToInputStream(TextureFrame textureFrame): void&lt;/span&gt;&lt;br&gt;&lt;span style=&quot;background-color: initial;&quot;&gt;+ WaitForNextValue(): void&lt;/span&gt;&lt;br&gt;&lt;span style=&quot;background-color: initial;&quot;&gt;+ OnPoseLandmarksOutput(stream: object, eventArgs: OutputEventArgs&amp;lt;NormalizedLandmarkList&amp;gt;): void&lt;/span&gt;&lt;br&gt;&lt;span style=&quot;background-color: initial;&quot;&gt;+ OnSegmentationMaskOutput(stream: object, eventArgs: OutputEventArgs&amp;lt;ImageFrame&amp;gt;)&lt;/span&gt;&lt;/font&gt;&lt;br&gt;&lt;/p&gt;" style="text;strokeColor=none;fillColor=none;align=left;verticalAlign=top;spacingLeft=4;spacingRight=4;overflow=hidden;rotatable=0;points=[[0,0.5],[1,0.5]];portConstraint=eastwest;whiteSpace=wrap;html=1;rounded=1;" parent="JTSKyNm3AYxUhAFt5JvO-41" vertex="1">
          <mxGeometry y="221" width="609" height="167" as="geometry" />
        </mxCell>
        <mxCell id="JTSKyNm3AYxUhAFt5JvO-46" value="&lt;font style=&quot;font-size: 36px;&quot;&gt;VirtualTryon &amp;lt;&amp;lt;EmptyGameObject&amp;gt;&amp;gt;&lt;/font&gt;" style="swimlane;fontStyle=1;align=center;verticalAlign=top;childLayout=stackLayout;horizontal=1;startSize=80;horizontalStack=0;resizeParent=1;resizeParentMax=0;resizeLast=0;collapsible=1;marginBottom=0;whiteSpace=wrap;html=1;rounded=1;" parent="WIyWlLk6GJQsqaUBKTNV-1" vertex="1">
          <mxGeometry x="193" y="-26" width="745" height="122" as="geometry">
            <mxRectangle x="195" y="148" width="98" height="26" as="alternateBounds" />
          </mxGeometry>
        </mxCell>
        <mxCell id="JTSKyNm3AYxUhAFt5JvO-51" value="" style="endArrow=diamondThin;endFill=1;endSize=24;html=1;rounded=0;" parent="WIyWlLk6GJQsqaUBKTNV-1" source="JTSKyNm3AYxUhAFt5JvO-36" target="JTSKyNm3AYxUhAFt5JvO-46" edge="1">
          <mxGeometry width="160" relative="1" as="geometry">
            <mxPoint x="-9" y="-1083" as="sourcePoint" />
            <mxPoint x="151" y="-1083" as="targetPoint" />
          </mxGeometry>
        </mxCell>
        <mxCell id="JTSKyNm3AYxUhAFt5JvO-52" value="" style="endArrow=diamondThin;endFill=1;endSize=24;html=1;rounded=0;" parent="WIyWlLk6GJQsqaUBKTNV-1" source="JTSKyNm3AYxUhAFt5JvO-41" target="JTSKyNm3AYxUhAFt5JvO-46" edge="1">
          <mxGeometry width="160" relative="1" as="geometry">
            <mxPoint x="-948" y="-794" as="sourcePoint" />
            <mxPoint x="-708" y="-1151" as="targetPoint" />
          </mxGeometry>
        </mxCell>
        <mxCell id="JTSKyNm3AYxUhAFt5JvO-53" value="" style="endArrow=diamondThin;endFill=1;endSize=24;html=1;rounded=0;entryX=0.5;entryY=0;entryDx=0;entryDy=0;" parent="WIyWlLk6GJQsqaUBKTNV-1" source="JTSKyNm3AYxUhAFt5JvO-37" target="JTSKyNm3AYxUhAFt5JvO-46" edge="1">
          <mxGeometry width="160" relative="1" as="geometry">
            <mxPoint x="837" y="-964" as="sourcePoint" />
            <mxPoint x="62" y="-1385" as="targetPoint" />
          </mxGeometry>
        </mxCell>
        <mxCell id="JTSKyNm3AYxUhAFt5JvO-54" value="" style="endArrow=diamondThin;endFill=1;endSize=24;html=1;rounded=0;exitX=0.319;exitY=1.035;exitDx=0;exitDy=0;entryX=0.654;entryY=-0.017;entryDx=0;entryDy=0;entryPerimeter=0;exitPerimeter=0;" parent="WIyWlLk6GJQsqaUBKTNV-1" source="JTSKyNm3AYxUhAFt5JvO-32" target="JTSKyNm3AYxUhAFt5JvO-46" edge="1">
          <mxGeometry width="160" relative="1" as="geometry">
            <mxPoint x="205" y="-1295" as="sourcePoint" />
            <mxPoint x="-1046" y="-1746" as="targetPoint" />
          </mxGeometry>
        </mxCell>
        <mxCell id="JTSKyNm3AYxUhAFt5JvO-55" value="" style="endArrow=diamondThin;endFill=1;endSize=24;html=1;rounded=0;entryX=0.75;entryY=0;entryDx=0;entryDy=0;" parent="WIyWlLk6GJQsqaUBKTNV-1" source="JTSKyNm3AYxUhAFt5JvO-21" target="JTSKyNm3AYxUhAFt5JvO-46" edge="1">
          <mxGeometry width="160" relative="1" as="geometry">
            <mxPoint x="481" y="-1872" as="sourcePoint" />
            <mxPoint x="85" y="-1108" as="targetPoint" />
          </mxGeometry>
        </mxCell>
        <mxCell id="JTSKyNm3AYxUhAFt5JvO-56" value="" style="endArrow=diamondThin;endFill=1;endSize=24;html=1;rounded=0;entryX=0.907;entryY=0.013;entryDx=0;entryDy=0;entryPerimeter=0;" parent="WIyWlLk6GJQsqaUBKTNV-1" source="JTSKyNm3AYxUhAFt5JvO-25" target="JTSKyNm3AYxUhAFt5JvO-46" edge="1">
          <mxGeometry width="160" relative="1" as="geometry">
            <mxPoint x="472" y="-1695" as="sourcePoint" />
            <mxPoint x="-428" y="-706" as="targetPoint" />
          </mxGeometry>
        </mxCell>
        <mxCell id="JTSKyNm3AYxUhAFt5JvO-59" value="&lt;b&gt;&lt;font style=&quot;font-size: 36px;&quot;&gt;MonoBehaviour&lt;/font&gt;&lt;/b&gt;" style="html=1;whiteSpace=wrap;" parent="WIyWlLk6GJQsqaUBKTNV-1" vertex="1">
          <mxGeometry x="585" y="-1298" width="340" height="130" as="geometry" />
        </mxCell>
        <mxCell id="JTSKyNm3AYxUhAFt5JvO-65" value="Extends" style="endArrow=block;endSize=16;endFill=0;html=1;rounded=0;exitX=0.372;exitY=0.002;exitDx=0;exitDy=0;exitPerimeter=0;fontSize=32;" parent="WIyWlLk6GJQsqaUBKTNV-1" source="JTSKyNm3AYxUhAFt5JvO-22" target="JTSKyNm3AYxUhAFt5JvO-59" edge="1">
          <mxGeometry width="160" relative="1" as="geometry">
            <mxPoint x="1415" y="-665" as="sourcePoint" />
            <mxPoint x="720" y="-1118" as="targetPoint" />
          </mxGeometry>
        </mxCell>
        <mxCell id="JTSKyNm3AYxUhAFt5JvO-64" value="Extends" style="endArrow=block;endSize=16;endFill=0;html=1;rounded=0;exitX=0.391;exitY=-0.003;exitDx=0;exitDy=0;exitPerimeter=0;fontSize=32;" parent="WIyWlLk6GJQsqaUBKTNV-1" source="JTSKyNm3AYxUhAFt5JvO-18" target="JTSKyNm3AYxUhAFt5JvO-59" edge="1">
          <mxGeometry width="160" relative="1" as="geometry">
            <mxPoint x="855" y="-753" as="sourcePoint" />
            <mxPoint x="710" y="-1128" as="targetPoint" />
          </mxGeometry>
        </mxCell>
        <mxCell id="JTSKyNm3AYxUhAFt5JvO-63" value="Extends" style="endArrow=block;endSize=16;endFill=0;html=1;rounded=0;entryX=0.5;entryY=1;entryDx=0;entryDy=0;exitX=0.575;exitY=-0.005;exitDx=0;exitDy=0;exitPerimeter=0;fontSize=32;" parent="WIyWlLk6GJQsqaUBKTNV-1" source="JTSKyNm3AYxUhAFt5JvO-29" target="JTSKyNm3AYxUhAFt5JvO-59" edge="1">
          <mxGeometry width="160" relative="1" as="geometry">
            <mxPoint x="317" y="-634" as="sourcePoint" />
            <mxPoint x="700" y="-1138" as="targetPoint" />
          </mxGeometry>
        </mxCell>
        <mxCell id="JTSKyNm3AYxUhAFt5JvO-62" value="Extends" style="endArrow=block;endSize=16;endFill=0;html=1;rounded=0;entryX=0.25;entryY=1;entryDx=0;entryDy=0;fontSize=32;" parent="WIyWlLk6GJQsqaUBKTNV-1" source="JTSKyNm3AYxUhAFt5JvO-37" target="JTSKyNm3AYxUhAFt5JvO-59" edge="1">
          <mxGeometry width="160" relative="1" as="geometry">
            <mxPoint x="-526" y="-611" as="sourcePoint" />
            <mxPoint x="693" y="-1132" as="targetPoint" />
          </mxGeometry>
        </mxCell>
        <mxCell id="JTSKyNm3AYxUhAFt5JvO-61" value="Extends" style="endArrow=block;endSize=16;endFill=0;html=1;rounded=0;entryX=0;entryY=0.75;entryDx=0;entryDy=0;exitX=0.5;exitY=0;exitDx=0;exitDy=0;fontSize=32;" parent="WIyWlLk6GJQsqaUBKTNV-1" source="JTSKyNm3AYxUhAFt5JvO-41" target="JTSKyNm3AYxUhAFt5JvO-59" edge="1">
          <mxGeometry x="0.0016" width="160" relative="1" as="geometry">
            <mxPoint x="-1155" y="-630" as="sourcePoint" />
            <mxPoint x="680" y="-1158" as="targetPoint" />
            <mxPoint as="offset" />
          </mxGeometry>
        </mxCell>
        <mxCell id="JTSKyNm3AYxUhAFt5JvO-66" value="" style="endArrow=open;endFill=1;endSize=12;html=1;rounded=0;" parent="WIyWlLk6GJQsqaUBKTNV-1" source="JTSKyNm3AYxUhAFt5JvO-30" target="JTSKyNm3AYxUhAFt5JvO-19" edge="1">
          <mxGeometry width="160" relative="1" as="geometry">
            <mxPoint x="1068" y="-444" as="sourcePoint" />
            <mxPoint x="1208" y="-444" as="targetPoint" />
          </mxGeometry>
        </mxCell>
        <mxCell id="JTSKyNm3AYxUhAFt5JvO-67" value="" style="endArrow=open;endFill=1;endSize=12;html=1;rounded=0;entryX=0;entryY=0.5;entryDx=0;entryDy=0;exitX=1;exitY=0.75;exitDx=0;exitDy=0;" parent="WIyWlLk6GJQsqaUBKTNV-1" source="JTSKyNm3AYxUhAFt5JvO-29" target="JTSKyNm3AYxUhAFt5JvO-25" edge="1">
          <mxGeometry width="160" relative="1" as="geometry">
            <mxPoint x="1063" y="-333" as="sourcePoint" />
            <mxPoint x="1198" y="-339" as="targetPoint" />
            <Array as="points">
              <mxPoint x="1343" y="-474" />
            </Array>
          </mxGeometry>
        </mxCell>
        <mxCell id="JTSKyNm3AYxUhAFt5JvO-70" value="" style="endArrow=open;endFill=1;endSize=12;html=1;rounded=0;exitX=0;exitY=0.5;exitDx=0;exitDy=0;" parent="WIyWlLk6GJQsqaUBKTNV-1" source="JTSKyNm3AYxUhAFt5JvO-29" target="JTSKyNm3AYxUhAFt5JvO-44" edge="1">
          <mxGeometry width="160" relative="1" as="geometry">
            <mxPoint x="549" y="-315" as="sourcePoint" />
            <mxPoint x="401" y="-404" as="targetPoint" />
          </mxGeometry>
        </mxCell>
        <mxCell id="JTSKyNm3AYxUhAFt5JvO-73" value="" style="endArrow=open;endFill=1;endSize=12;html=1;rounded=0;entryX=-0.012;entryY=0.731;entryDx=0;entryDy=0;entryPerimeter=0;exitX=1;exitY=0.25;exitDx=0;exitDy=0;" parent="WIyWlLk6GJQsqaUBKTNV-1" source="JTSKyNm3AYxUhAFt5JvO-33" target="JTSKyNm3AYxUhAFt5JvO-32" edge="1">
          <mxGeometry width="160" relative="1" as="geometry">
            <mxPoint x="-954" y="-425" as="sourcePoint" />
            <mxPoint x="-794" y="-425" as="targetPoint" />
          </mxGeometry>
        </mxCell>
        <mxCell id="JTSKyNm3AYxUhAFt5JvO-60" value="Extends" style="endArrow=block;endSize=16;endFill=0;html=1;rounded=0;entryX=0;entryY=0.25;entryDx=0;entryDy=0;exitX=0.329;exitY=0.005;exitDx=0;exitDy=0;exitPerimeter=0;fontSize=33;" parent="WIyWlLk6GJQsqaUBKTNV-1" source="JTSKyNm3AYxUhAFt5JvO-33" target="JTSKyNm3AYxUhAFt5JvO-59" edge="1">
          <mxGeometry width="160" relative="1" as="geometry">
            <mxPoint x="-1055" y="-533" as="sourcePoint" />
            <mxPoint x="-895" y="-533" as="targetPoint" />
            <Array as="points">
              <mxPoint x="-800" y="-1082" />
            </Array>
          </mxGeometry>
        </mxCell>
        <mxCell id="JTSKyNm3AYxUhAFt5JvO-85" value="" style="endArrow=diamondThin;endFill=1;endSize=24;html=1;rounded=0;entryX=0;entryY=0.25;entryDx=0;entryDy=0;exitX=1;exitY=0.5;exitDx=0;exitDy=0;fontSize=21;" parent="WIyWlLk6GJQsqaUBKTNV-1" source="JTSKyNm3AYxUhAFt5JvO-37" target="JTSKyNm3AYxUhAFt5JvO-29" edge="1">
          <mxGeometry width="160" relative="1" as="geometry">
            <mxPoint x="205" y="-846" as="sourcePoint" />
            <mxPoint x="365" y="-846" as="targetPoint" />
          </mxGeometry>
        </mxCell>
        <mxCell id="JTSKyNm3AYxUhAFt5JvO-87" value="&lt;font style=&quot;font-size: 32px;&quot;&gt;33&lt;/font&gt;" style="edgeLabel;html=1;align=center;verticalAlign=middle;resizable=0;points=[];rotation=0;fontSize=32;" parent="JTSKyNm3AYxUhAFt5JvO-85" vertex="1" connectable="0">
          <mxGeometry x="-0.874" y="1" relative="1" as="geometry">
            <mxPoint x="18" y="-12" as="offset" />
          </mxGeometry>
        </mxCell>
        <mxCell id="JTSKyNm3AYxUhAFt5JvO-89" value="&lt;font style=&quot;font-size: 32px;&quot;&gt;1&lt;/font&gt;" style="edgeLabel;html=1;align=center;verticalAlign=middle;resizable=0;points=[];fontSize=32;" parent="JTSKyNm3AYxUhAFt5JvO-85" vertex="1" connectable="0">
          <mxGeometry x="0.6969" relative="1" as="geometry">
            <mxPoint x="5" y="-17" as="offset" />
          </mxGeometry>
        </mxCell>
      </root>
    </mxGraphModel>
  </diagram>
</mxfile>
